{
  "accessors": [
    {
      "bufferView": 2,
      "componentType": 5126,
      "count": 124,
      "max": [
        28.166967391967773,
        6.897192001342773,
        2.9792327880859375
      ],
      "min": [
        -3.6888017654418945,
        -3.469877243041992,
        -2.9346234798431396
      ],
      "type": "VEC3"
    },
    {
      "bufferView": 2,
      "byteOffset": 1488,
      "componentType": 5126,
      "count": 124,
      "max": [
        0.9998787045478821,
        0.9915279150009155,
        0.9998425841331482
      ],
      "min": [
        -0.9984119534492493,
        -0.9915279150009155,
        -0.9990785717964172
      ],
      "type": "VEC3"
    },
    {
      "bufferView": 1,
      "componentType": 5126,
      "count": 124,
      "max": [
        0.392050176858902,
        0.365833044052124
      ],
      "min": [
        0.2842806875705719,
        0.18678025901317596
      ],
      "type": "VEC2"
    },
    {
      "bufferView": 0,
      "componentType": 5125,
      "count": 384,
      "type": "SCALAR"
    }
  ],
  "asset": {
    "extras": {
      "author": "Raphael C (https://sketchfab.com/Qurka)",
      "license": "CC-BY-4.0 (http://creativecommons.org/licenses/by/4.0/)",
      "source": "https://sketchfab.com/3d-models/halloween-bone-low-poly-game-ready-ed75ba7601d94ecba7bd2aca8d922257",
      "title": "Halloween Bone low-poly [Game Ready]"
    },
    "generator": "Sketchfab-14.20.0",
    "version": "2.0"
  },
  "bufferViews": [
    {
      "buffer": 0,
      "byteLength": 1536,
      "name": "floatBufferViews",
      "target": 34963
    },
    {
      "buffer": 0,
      "byteLength": 992,
      "byteOffset": 1536,
      "byteStride": 8,
      "name": "floatBufferViews",
      "target": 34962
    },
    {
      "buffer": 0,
      "byteLength": 2976,
      "byteOffset": 2528,
      "byteStride": 12,
      "name": "floatBufferViews",
      "target": 34962
    }
  ],
  "buffers": [
    {
      "byteLength": 5504,
      "uri": "scene.bin"
    }
  ],
  "images": [
    {
      "uri": "textures/Material_219_baseColor.png"
    }
  ],
  "materials": [
    {
      "doubleSided": true,
      "name": "Material_219",
      "pbrMetallicRoughness": {
        "baseColorTexture": {
          "index": 0
        },
        "metallicFactor": 0.0,
        "roughnessFactor": 0.8929713596497552
      }
    }
  ],
  "meshes": [
    {
      "name": "Sphere012_Material #219_0",
      "primitives": [
        {
          "attributes": {
            "NORMAL": 1,
            "POSITION": 0,
            "TEXCOORD_0": 2
          },
          "indices": 3,
          "material": 0,
          "mode": 4
        }
      ]
    }
  ],
  "nodes": [
    {
      "children": [
        1
      ],
      "matrix": [
        1.0,
        0.0,
        0.0,
        0.0,
        0.0,
        2.220446049250313e-16,
        -1.0,
        0.0,
        0.0,
        1.0,
        2.220446049250313e-16,
        0.0,
        0.0,
        0.0,
        0.0,
        1.0
      ],
      "name": "Sketchfab_model"
    },
    {
      "children": [
        2
      ],
      "matrix": [
        1.0,
        0.0,
        0.0,
        0.0,
        0.0,
        0.0,
        1.0,
        0.0,
        0.0,
        -1.0,
        0.0,
        0.0,
        0.0,
        0.0,
        0.0,
        1.0
      ],
      "name": "8daaca93b7234965bb6fb7381c15a6b0.fbx"
    },
    {
      "children": [
        3
      ],
      "name": "RootNode"
    },
    {
      "children": [
        4
      ],
      "matrix": [
        -0.005745386276135633,
        0.003571204631301006,
        0.9999771182552226,
        0.0,
        0.9977750456946086,
        -0.06640270140786253,
        0.005969877290211367,
        0.0,
        0.0664225016516235,
        0.9977865141117211,
        -0.0031817496948141066,
        0.0,
        0.0,
        0.0,
        0.0,
        1.0
      ],
      "name": "Sphere012"
    },
    {
      "children": [
        5
      ],
      "matrix": [
        1.0,
        0.0,
        -0.0,
        0.0,
        0.0,
        1.0,
        0.0,
        0.0,
        0.0,
        0.0,
        1.0,
        0.0,
        -12.2390832901001,
        -1.71364080905914,
        -0.0223035290837288,
        1.0
      ],
      "name": "Object_4"
    },
    {
      "mesh": 0,
      "name": "Sphere012_Material #219_0"
    }
  ],
  "samplers": [
    {
      "magFilter": 9729,
      "minFilter": 9987,
      "wrapS": 10497,
      "wrapT": 10497
    }
  ],
  "scene": 0,
  "scenes": [
    {
      "name": "Sketchfab_Scene",
      "nodes": [
        0
      ]
    }
  ],
  "textures": [
    {
      "sampler": 0,
      "source": 0
    }
  ]
}
